<svg id="Capa_1" enable-background="new 0 0 512 512" height="512" viewBox="0 0 512 512" width="512" xmlns="http://www.w3.org/2000/svg"><g><path d="m256 169.835c-14.04 0-23.03 2.565-28.292 8.072-2.426 2.538-5.251 7.033-4.932 14.031.554 12.185 14.055 22.818 25.71 26.35v29.66c0 4.151 3.364 7.515 7.515 7.515s7.515-3.364 7.515-7.515v-29.66c11.655-3.532 25.156-14.165 25.71-26.35.318-6.997-2.507-11.492-4.933-14.031-5.264-5.508-14.253-8.072-28.293-8.072zm18.21 21.42c-.219 4.829-11.793 13.247-18.21 13.247s-17.991-8.418-18.211-13.247c-.093-2.046.5-2.666.785-2.965.984-1.03 4.653-3.426 17.426-3.426s16.441 2.395 17.426 3.426c.284.298.877.919.784 2.965z"/><path d="m192.137 145.792c-4.151 0-7.515 3.364-7.515 7.515v18.633c0 4.151 3.364 7.515 7.515 7.515s7.515-3.364 7.515-7.515v-18.633c0-4.151-3.364-7.515-7.515-7.515z"/><path d="m319.863 145.792c-4.151 0-7.515 3.364-7.515 7.515v18.633c0 4.151 3.364 7.515 7.515 7.515s7.515-3.364 7.515-7.515v-18.633c-.001-4.151-3.365-7.515-7.515-7.515z"/><path d="m433.03 205.144h-13.695c-.447-9.224-1.973-18.514-4.309-27.635l13.864-4.772c3.924-1.351 6.01-5.627 4.659-9.552-1.35-3.923-5.62-6.011-9.552-4.66l-13.345 4.594c-2.878-8.172-6.318-16.088-10.118-23.555.91-7.901 3.685-34.463 3.391-62.134-.502-47.236-9.605-72.347-27.83-76.769-13.472-3.268-29.597 5.591-47.953 26.321-8.263 9.33-15.081 18.892-18.909 24.549-16.021-5.572-33.588-8.223-53.234-8.223-19.647 0-37.213 2.65-53.234 8.223-3.828-5.657-10.647-15.219-18.909-24.549-18.358-20.731-34.497-29.586-47.952-26.321-13.571 3.293-21.969 17.789-25.674 44.317-.574 4.111 2.293 7.908 6.402 8.482 4.114.568 7.908-2.293 8.482-6.402 2.602-18.625 7.826-30.213 14.333-31.791 7.273-1.766 19.322 6.087 33.041 21.547 6.599 7.436 12.312 15.19 16.082 20.605-24.227 11.831-44.87 31.444-64.058 60.07-.864-11.632-1.611-26.48-1.391-41.371.062-4.15-3.253-7.564-7.402-7.625-.038-.001-.076-.001-.114-.001-4.099 0-7.451 3.292-7.512 7.403-.417 28.147 2.438 55.551 3.368 63.64-3.828 7.498-7.281 15.412-10.16 23.567l-13.299-4.578c-3.925-1.353-8.201.737-9.552 4.66-1.35 3.925.736 8.201 4.66 9.552l13.803 4.751c-2.342 9.137-3.859 18.433-4.296 27.656h-13.647c-4.151 0-7.515 3.364-7.515 7.515s3.364 7.515 7.515 7.515h13.944c.792 8.701 2.71 17.215 5.985 25.338l-10.507 5.894c-3.62 2.03-4.908 6.611-2.878 10.23 2.041 3.654 6.678 4.889 10.23 2.878l10.063-5.645c11.824 18.512 31.075 32.294 57.589 41.275-9.219 22.51-23.609 60.133-34.848 100.815-2.321 9.644 11.478 13.526 14.487 4.002 6.484-23.472 14.044-45.922 21.018-64.946 18.956 4.199 40.308 6.907 63.8 8.088-4.205 5.757-6.695 12.842-6.695 20.501 0 19.211 15.63 34.841 34.842 34.841s34.841-15.629 34.841-34.841c0-7.659-2.49-14.744-6.694-20.501 23.534-1.183 44.922-3.898 63.902-8.11 29.784 80.678 36.088 132.309 37.078 156.978h-258.274c.659-18.302 3.661-39.516 8.954-63.197.905-4.05-1.645-8.068-5.695-8.973-4.051-.908-8.068 1.644-8.973 5.695-6.273 28.07-9.454 52.964-9.454 73.99 0 1.993.792 3.904 2.201 5.314 1.41 1.409 3.321 2.201 5.314 2.201h273.6c4.151 0 7.515-3.364 7.515-7.515 0-69.107-33.949-161.007-51.714-204.356 26.552-9 45.829-22.796 57.607-41.253l10.049 5.637c3.552 2.012 8.19.776 10.23-2.878 2.03-3.619.743-8.2-2.878-10.23l-10.511-5.896c3.273-8.116 5.182-16.631 5.962-25.336h13.971c4.151 0 7.515-3.364 7.515-7.515-.001-4.15-3.366-7.514-7.516-7.514zm-93.519-168.329c13.719-15.459 25.754-23.323 33.042-21.547 3.679.892 15.733 8.008 16.342 62.096.163 14.473-.568 28.819-1.408 40.127-19.187-28.626-39.83-48.239-64.057-60.07 3.77-5.415 9.482-13.169 16.081-20.606zm-83.511 351.6c-10.925 0-19.812-8.888-19.812-19.811 0-10.925 8.888-19.812 19.812-19.812s19.811 8.888 19.811 19.812c0 10.923-8.887 19.811-19.811 19.811zm51.627-94.13c-4.107.599-6.949 4.415-6.349 8.522.6 4.109 4.426 6.946 8.522 6.349 8.598-1.255 16.695-2.849 24.306-4.768 3.029 7.33 5.881 14.461 8.566 21.392-24.766 5.293-53.861 7.981-86.671 7.981-32.782 0-61.856-2.684-86.609-7.969 3.127-8.143 6.021-15.358 8.501-21.385 21.937 5.52 47.998 8.296 78.109 8.296 7.966 0 15.758-.198 23.161-.588 4.145-.218 7.327-3.754 7.109-7.899-.219-4.145-3.773-7.35-7.899-7.109-7.14.376-14.666.567-22.37.567-39.963 0-72.481-5.084-96.652-15.113-20.371-8.451-34.926-20.487-43.262-35.772-8.965-16.439-10.958-36.64-5.924-60.041 5.434-25.256 17.384-46.317 24.023-56.625 32.845-50.988 68.137-71.785 121.812-71.785s88.966 20.798 121.814 71.786c30.833 47.863 30.671 89.437 20.237 112.383-12.466 27.416-42.889 44.837-90.424 51.778z"/></g></svg>